HIERARCHY
ROOT Haolin_V1:Solving:Hips
{
	OFFSET 0.000000 0.000000 0.000000
	CHANNELS 6 Xposition Yposition Zposition Xrotation Yrotation Zrotation
	JOINT Haolin_V1:Solving:Spine
	{
		OFFSET 0.000000 -12.731938 2.520517
		CHANNELS 6 Xposition Yposition Zposition Xrotation Yrotation Zrotation
		JOINT Haolin_V1:Solving:Spine1
		{
			OFFSET 0.000000 -8.486854 1.496462
			CHANNELS 6 Xposition Yposition Zposition Xrotation Yrotation Zrotation
			JOINT Haolin_V1:Solving:Spine2
			{
				OFFSET 0.000000 -8.584984 0.751091
				CHANNELS 6 Xposition Yposition Zposition Xrotation Yrotation Zrotation
				JOINT Haolin_V1:Solving:Spine3
				{
					OFFSET 0.000000 -8.617775 0.000000
					CHANNELS 6 Xposition Yposition Zposition Xrotation Yrotation Zrotation
					JOINT Haolin_V1:Solving:Neck
					{
						OFFSET 0.000000 -11.080002 -1.107998
						CHANNELS 6 Xposition Yposition Zposition Xrotation Yrotation Zrotation
						JOINT Haolin_V1:Solving:Neck1
						{
							OFFSET 0.000000 -8.314011 -0.727381
							CHANNELS 6 Xposition Yposition Zposition Xrotation Yrotation Zrotation
							JOINT Haolin_V1:Solving:Head
							{
								OFFSET 0.000000 -8.218975 -1.449226
								CHANNELS 6 Xposition Yposition Zposition Xrotation Yrotation Zrotation
								JOINT Haolin_V1:Solving:HeadEnd
								{
									OFFSET 0.000000 -9.728081 0.000002
									CHANNELS 6 Xposition Yposition Zposition Xrotation Yrotation Zrotation
									End Site
									{
										OFFSET 0.000000 -9.728081 0.000002
									}
								}
							}
						}
					}
					JOINT Haolin_V1:Solving:RightShoulder
					{
						OFFSET 0.000000 -7.914288 -5.288076
						CHANNELS 6 Xposition Yposition Zposition Xrotation Yrotation Zrotation
						JOINT Haolin_V1:Solving:RightArm
						{
							OFFSET -20.201836 -0.000008 0.000000
							CHANNELS 6 Xposition Yposition Zposition Xrotation Yrotation Zrotation
							JOINT Haolin_V1:Solving:RightForeArm
							{
								OFFSET -29.446457 -0.000008 0.000000
								CHANNELS 6 Xposition Yposition Zposition Xrotation Yrotation Zrotation
								JOINT Haolin_V1:Solving:RightHand
								{
									OFFSET -23.111885 -0.000008 0.000000
									CHANNELS 6 Xposition Yposition Zposition Xrotation Yrotation Zrotation
									JOINT Haolin_V1:Solving:RightHandThumb1
									{
										OFFSET -3.824379 2.925484 -2.843767
										CHANNELS 6 Xposition Yposition Zposition Xrotation Yrotation Zrotation
										End Site
										{
											OFFSET -5.557076 0.000000 -5.608460
										}
									}
									JOINT Haolin_V1:Solving:RightHandMiddle1
									{
										OFFSET -10.198334 -0.000004 0.065374
										CHANNELS 6 Xposition Yposition Zposition Xrotation Yrotation Zrotation
										End Site
										{
											OFFSET -7.895309 -0.000004 0.000000
										}
									}
								}
							}
						}
					}
					JOINT Haolin_V1:Solving:LeftShoulder
					{
						OFFSET 0.000000 -7.914288 -5.288076
						CHANNELS 6 Xposition Yposition Zposition Xrotation Yrotation Zrotation
						JOINT Haolin_V1:Solving:LeftArm
						{
							OFFSET 20.201836 -0.000008 0.000000
							CHANNELS 6 Xposition Yposition Zposition Xrotation Yrotation Zrotation
							JOINT Haolin_V1:Solving:LeftForeArm
							{
								OFFSET 29.446457 -0.000008 0.000000
								CHANNELS 6 Xposition Yposition Zposition Xrotation Yrotation Zrotation
								JOINT Haolin_V1:Solving:LeftHand
								{
									OFFSET 23.111885 -0.000008 0.000000
									CHANNELS 6 Xposition Yposition Zposition Xrotation Yrotation Zrotation
									JOINT Haolin_V1:Solving:LeftHandThumb1
									{
										OFFSET 3.824379 2.925484 -2.843767
										CHANNELS 6 Xposition Yposition Zposition Xrotation Yrotation Zrotation
										End Site
										{
											OFFSET 5.557076 0.000000 -5.608460
										}
									}
									JOINT Haolin_V1:Solving:LeftHandMiddle1
									{
										OFFSET 10.198334 -0.000004 0.065374
										CHANNELS 6 Xposition Yposition Zposition Xrotation Yrotation Zrotation
										End Site
										{
											OFFSET 7.895309 -0.000004 0.000000
										}
									}
								}
							}
						}
					}
				}
			}
		}
	}
	JOINT Haolin_V1:Solving:RightUpLeg
	{
		OFFSET -10.695510 0.000000 0.000000
		CHANNELS 6 Xposition Yposition Zposition Xrotation Yrotation Zrotation
		JOINT Haolin_V1:Solving:RightLeg
		{
			OFFSET 0.000000 46.236332 -0.000006
			CHANNELS 6 Xposition Yposition Zposition Xrotation Yrotation Zrotation
			JOINT Haolin_V1:Solving:RightFoot
			{
				OFFSET 0.000000 41.248135 -0.000006
				CHANNELS 6 Xposition Yposition Zposition Xrotation Yrotation Zrotation
				JOINT Haolin_V1:Solving:RightForeFoot
				{
					OFFSET 0.000000 3.207336 -0.000000
					CHANNELS 6 Xposition Yposition Zposition Xrotation Yrotation Zrotation
					JOINT Haolin_V1:Solving:RightToeBase
					{
						OFFSET 0.000000 0.000000 -12.560947
						CHANNELS 6 Xposition Yposition Zposition Xrotation Yrotation Zrotation
						JOINT Haolin_V1:Solving:RightToeBaseEnd
						{
							OFFSET 0.000000 0.000000 -3.517768
							CHANNELS 6 Xposition Yposition Zposition Xrotation Yrotation Zrotation
							End Site
							{
								OFFSET 0.000000 -3.517769 0.000004
							}
						}
					}
				}
			}
		}
	}
	JOINT Haolin_V1:Solving:LeftUpLeg
	{
		OFFSET 10.695510 0.000000 0.000000
		CHANNELS 6 Xposition Yposition Zposition Xrotation Yrotation Zrotation
		JOINT Haolin_V1:Solving:LeftLeg
		{
			OFFSET 0.000000 46.236332 -0.000006
			CHANNELS 6 Xposition Yposition Zposition Xrotation Yrotation Zrotation
			JOINT Haolin_V1:Solving:LeftFoot
			{
				OFFSET 0.000000 41.248135 -0.000006
				CHANNELS 6 Xposition Yposition Zposition Xrotation Yrotation Zrotation
				JOINT Haolin_V1:Solving:LeftForeFoot
				{
					OFFSET 0.000000 3.207336 -0.000000
					CHANNELS 6 Xposition Yposition Zposition Xrotation Yrotation Zrotation
					JOINT Haolin_V1:Solving:LeftToeBase
					{
						OFFSET 0.000000 0.000000 -12.560947
						CHANNELS 6 Xposition Yposition Zposition Xrotation Yrotation Zrotation
						JOINT Haolin_V1:Solving:LeftToeBaseEnd
						{
							OFFSET 0.000000 0.000000 -3.901837
							CHANNELS 6 Xposition Yposition Zposition Xrotation Yrotation Zrotation
							End Site
							{
								OFFSET 0.000000 -3.901840 0.000004
							}
						}
					}
				}
			}
		}
	}
}
MOTION
Frames: 4
Frame Time: 0.041667
-35.891251 -132.551346 -95.121300 85.585371 -2.380183 -0.879824 -0.000005 -12.731938 2.520526 11.094227 -0.367154 -3.361665 0.000004 -8.486851 1.496503 -0.549654 -0.085262 -0.053198 -0.000001 -8.584966 0.751082 -5.551237 -0.223232 0.822507 0.000006 -8.617778 0.000010 -2.447447 -0.162321 1.673528 0.000005 -11.080048 -1.108016 3.182292 -1.596003 -0.992366 -0.000004 -8.314029 -0.727392 2.845454 -5.400941 -0.980320 0.000000 -8.218959 -1.449221 11.177860 -0.308939 -1.048208 -0.000004 -9.728043 -0.000036 -0.000001 0.000000 -0.000000 0.000003 -7.914349 -5.288092 -0.000009 17.136014 10.890475 -20.201828 -0.000006 -0.000005 0.976173 -44.116120 -90.624616 -29.446453 -0.000016 0.000024 6.635818 -23.744675 2.682001 -23.111893 -0.000020 -0.000015 0.020097 -0.161681 7.087504 -3.824366 2.925456 -2.843777 0.000009 -0.000000 -0.000003 -10.198318 -0.000023 0.065382 0.000003 0.000001 0.000002 0.000002 -7.914345 -5.288092 -0.000006 -12.276180 -9.394727 20.201818 0.000018 0.000007 -6.413457 38.219823 93.970719 29.446445 0.000012 0.000011 24.062087 9.590159 -4.254435 23.111862 -0.000020 0.000011 0.392734 2.272889 -9.806228 3.824422 2.925492 -2.843764 -0.000002 0.000009 -0.000003 10.198327 0.000020 0.065388 0.000001 0.000003 0.000001 -10.695507 0.000004 -0.000005 8.967017 6.202806 -1.484031 -0.000005 46.236351 0.000041 -0.741423 0.000000 -0.000000 -0.000006 41.248131 -0.000008 -2.888744 -0.218299 -1.724603 -0.000002 3.207336 -0.000027 0.000000 0.000000 -0.000000 -0.000000 -0.000007 -12.560971 4.585806 -0.000001 0.000001 -0.000016 -0.000000 -3.517785 -0.000000 -0.000001 -0.000000 10.695503 0.000001 0.000011 4.362090 -13.029476 2.027480 -0.000003 46.236340 -0.000022 6.876009 0.000001 -0.000000 -0.000006 41.248123 -0.000048 -6.177670 -7.549665 -7.189048 -0.000005 3.207336 -0.000030 0.000000 0.000002 0.000001 0.000003 0.000011 -12.560959 7.328331 0.000005 -0.000001 0.000009 0.000000 -3.901823 -0.000000 0.000004 -0.000000 
-35.911243 -132.543594 -95.122574 85.585918 -2.355669 -0.880830 0.000001 -12.731962 2.520541 11.130974 -0.394238 -3.382548 0.000003 -8.486849 1.496435 -0.548401 -0.086016 -0.064247 -0.000001 -8.584987 0.751117 -5.534052 -0.305775 0.835797 0.000008 -8.617784 0.000038 -2.439808 -0.138095 1.657760 0.000010 -11.079995 -1.108015 3.177863 -1.736311 -1.063806 -0.000004 -8.313974 -0.727383 2.785020 -5.383315 -0.915544 0.000002 -8.219002 -1.449197 11.155255 -0.319180 -0.969205 -0.000002 -9.728050 -0.000002 -0.000001 0.000001 0.000000 0.000011 -7.914291 -5.288095 -0.000008 17.152786 10.849381 -20.201845 -0.000009 0.000016 0.959936 -44.022311 -90.463854 -29.446453 0.000000 -0.000027 7.283412 -23.752775 2.946953 -23.111881 -0.000016 -0.000005 0.020674 -0.174567 6.753897 -3.824424 2.925480 -2.843783 -0.000002 -0.000002 0.000001 -10.198370 -0.000011 0.065344 -0.000004 -0.000003 0.000002 0.000014 -7.914265 -5.288094 -0.000005 -12.210932 -9.423580 20.201820 -0.000023 0.000016 -6.608005 38.626929 94.144643 29.446444 -0.000011 0.000001 24.306230 9.911299 -4.445157 23.111877 -0.000015 -0.000005 0.413449 2.435718 -9.637138 3.824401 2.925488 -2.843765 -0.000004 0.000007 0.000000 10.198356 -0.000015 0.065353 -0.000004 -0.000001 -0.000001 -10.695509 -0.000010 -0.000001 8.958795 6.227886 -1.481428 0.000004 46.236347 0.000007 -0.711050 -0.000000 0.000000 -0.000002 41.248138 0.000021 -2.920225 -0.296705 -1.765778 0.000010 3.207344 -0.000017 0.000000 0.000000 -0.000000 -0.000016 -0.000015 -12.560971 4.736711 -0.000000 -0.000000 0.000001 0.000008 -3.517771 0.000001 -0.000001 0.000001 10.695514 -0.000027 0.000003 4.148427 -12.937644 1.984077 0.000003 46.236332 -0.000040 7.312382 -0.000001 0.000001 -0.000012 41.248127 -0.000008 -6.342141 -7.699963 -7.287044 0.000011 3.207336 -0.000016 -0.000000 0.000004 -0.000000 -0.000000 0.000001 -12.560976 7.481431 -0.000000 0.000000 -0.000002 0.000000 -3.901833 0.000000 -0.000002 -0.000000 
-35.931957 -132.541504 -95.116776 85.599052 -2.336901 -0.859555 -0.000001 -12.731921 2.520525 11.149949 -0.416695 -3.447836 -0.000004 -8.486859 1.496501 -0.542068 -0.086336 -0.076391 0.000001 -8.584985 0.751090 -5.532366 -0.299790 0.825648 0.000001 -8.617775 0.000024 -2.448305 -0.142016 1.659558 -0.000000 -11.079987 -1.108024 3.144411 -1.779729 -1.031460 -0.000001 -8.314014 -0.727383 2.799748 -5.481822 -0.925796 0.000000 -8.218947 -1.449233 11.202378 -0.327254 -0.951973 0.000005 -9.728096 -0.000025 -0.000001 0.000001 -0.000000 0.000010 -7.914288 -5.288086 -0.000010 17.095216 10.861387 -20.201830 0.000005 -0.000024 0.883450 -43.936507 -90.368423 -29.446474 -0.000007 -0.000019 7.817057 -23.692050 3.157443 -23.111887 -0.000021 -0.000028 0.026196 -0.232593 6.429055 -3.824387 2.925466 -2.843769 0.000005 -0.000002 -0.000001 -10.198311 -0.000024 0.065373 0.000002 -0.000002 -0.000000 0.000009 -7.914288 -5.288086 -0.000005 -12.166336 -9.421370 20.201828 0.000006 -0.000018 -6.728973 38.951934 94.252027 29.446442 -0.000017 0.000004 24.446082 10.209683 -4.606715 23.111900 -0.000003 -0.000005 0.473691 2.856371 -9.420304 3.824396 2.925458 -2.843777 -0.000005 0.000005 0.000002 10.198342 -0.000008 0.065366 -0.000002 0.000001 0.000002 -10.695516 0.000001 0.000019 8.934890 6.247031 -1.503100 0.000007 46.236317 -0.000015 -0.678073 0.000000 -0.000000 0.000001 41.248123 -0.000016 -2.950140 -0.359856 -1.822261 -0.000002 3.207336 0.000003 0.000000 -0.000000 -0.000000 -0.000001 -0.000013 -12.560966 4.801392 0.000001 0.000000 0.000003 0.000000 -3.517741 0.000000 -0.000000 -0.000000 10.695509 0.000018 -0.000017 3.887368 -12.819801 1.913656 0.000001 46.236336 -0.000050 7.793346 -0.000005 0.000001 -0.000005 41.248138 0.000013 -6.541642 -7.874281 -7.350911 -0.000003 3.207336 -0.000012 -0.000000 0.000000 0.000001 0.000000 -0.000022 -12.560933 7.675788 -0.000001 0.000002 0.000008 0.000016 -3.901832 0.000001 0.000001 -0.000000 
-35.952858 -132.536789 -95.110695 85.605616 -2.319349 -0.830379 -0.000003 -12.731938 2.520500 11.176565 -0.447846 -3.519418 0.000005 -8.486861 1.496463 -0.532801 -0.085730 -0.094830 0.000001 -8.584978 0.751119 -5.526126 -0.284320 0.817509 0.000001 -8.617770 0.000021 -2.454006 -0.144556 1.652780 0.000002 -11.079979 -1.108027 3.085898 -1.821828 -1.013154 -0.000000 -8.313994 -0.727375 2.838918 -5.602081 -0.897935 -0.000002 -8.218961 -1.449243 11.217341 -0.338859 -0.926007 0.000001 -9.728096 -0.000022 -0.000001 0.000000 -0.000001 -0.000008 -7.914268 -5.288115 -0.000009 17.038045 10.883127 -20.201836 -0.000008 0.000018 0.793898 -43.883187 -90.259775 -29.446440 -0.000012 0.000006 8.449221 -23.599398 3.403237 -23.111912 -0.000016 -0.000015 0.012279 -0.116354 6.026817 -3.824357 2.925465 -2.843735 0.000004 0.000009 -0.000000 -10.198309 -0.000016 0.065388 0.000003 0.000001 0.000002 -0.000009 -7.914268 -5.288115 -0.000005 -12.156407 -9.456195 20.201824 0.000018 0.000009 -6.894024 39.315511 94.419135 29.446457 -0.000023 0.000006 24.527404 10.518710 -4.761786 23.111883 -0.000024 0.000018 0.509602 3.111381 -9.306452 3.824384 2.925450 -2.843761 0.000004 0.000003 -0.000003 10.198323 -0.000020 0.065367 0.000004 0.000006 -0.000004 -10.695507 0.000004 -0.000045 8.924683 6.223503 -1.534844 -0.000003 46.236340 0.000002 -0.661155 -0.000000 -0.000000 -0.000013 41.248142 0.000000 -2.956581 -0.383397 -1.818754 -0.000003 3.207336 0.000024 0.000000 -0.000001 -0.000000 -0.000004 -0.000003 -12.560982 4.850896 -0.000001 -0.000000 -0.000001 0.000015 -3.517772 0.000000 -0.000001 -0.000000 10.695514 0.000011 -0.000007 3.604489 -12.767598 1.822177 0.000012 46.236340 0.000006 8.336610 -0.000001 0.000001 0.000008 41.248146 0.000028 -6.764981 -7.969510 -7.395449 0.000008 3.207336 -0.000047 0.000000 0.000006 0.000000 0.000004 -0.000004 -12.560966 8.024822 0.000004 -0.000001 -0.000001 0.000000 -3.901809 -0.000000 0.000000 -0.000001 
